<?xml version="1.0" standalone="no"?>
<!DOCTYPE svg PUBLIC "-//W3C//DTD SVG 20010904//EN"
 "http://www.w3.org/TR/2001/REC-SVG-20010904/DTD/svg10.dtd">
<svg version="1.0" xmlns="http://www.w3.org/2000/svg"
 width="439.000000pt" height="345.000000pt" viewBox="0 0 439.000000 345.000000"
 preserveAspectRatio="xMidYMid meet">

<g transform="translate(0.000000,345.000000) scale(0.100000,-0.100000)"
fill="#000000" stroke="none">
<path d="M2931 3423 c0 -10 7 -602 16 -1315 9 -714 14 -1300 11 -1303 -3 -3
-76 -26 -163 -50 -87 -24 -165 -47 -174 -51 -18 -8 -28 -10 -55 -12 -16 -2
-17 -4 -5 -19 13 -15 12 -15 -6 -4 -18 11 -55 3 -260 -54 -132 -37 -242 -72
-243 -76 -2 -5 -8 -7 -13 -4 -5 3 -91 -17 -191 -46 -101 -28 -223 -63 -273
-76 -49 -14 -94 -28 -100 -31 -5 -3 -23 -7 -40 -9 -16 -2 -32 -8 -33 -13 -2
-6 -8 -7 -14 -4 -5 3 -16 -2 -24 -12 -9 -11 -12 -13 -8 -5 5 9 1 12 -12 8 -11
-3 -71 -20 -134 -37 -63 -18 -119 -35 -125 -38 -5 -3 -16 -7 -25 -7 -27 -3
-535 -148 -540 -155 -3 -3 -14 -6 -25 -7 -19 0 -56 -10 -275 -73 l-105 -30
1495 4 1495 4 90 27 c147 45 346 125 339 137 -5 7 -2 8 6 3 16 -10 182 74 173
88 -3 5 -1 7 5 3 12 -7 62 13 62 26 0 4 6 8 13 8 7 0 30 12 51 26 30 21 35 28
25 36 -11 8 -10 8 4 4 10 -3 23 -2 30 4 131 104 222 194 212 209 -3 6 -11 9
-16 5 -5 -3 -7 -9 -5 -13 3 -4 -1 -8 -9 -8 -13 0 -13 3 0 17 8 9 12 21 8 26
-5 5 2 1 13 -9 21 -18 22 -17 56 22 19 22 41 53 49 68 7 15 16 30 19 33 18 18
51 94 46 106 -3 8 -2 13 3 9 11 -6 45 81 67 169 21 86 29 302 15 410 -7 50
-15 94 -18 99 -3 6 -7 24 -9 41 -3 41 -94 316 -103 316 -4 0 -8 6 -8 13 0 25
-114 247 -124 242 -5 -3 -6 2 -2 11 5 13 3 15 -7 9 -8 -5 -11 -4 -6 3 8 13
-14 63 -25 57 -4 -3 -11 0 -15 6 -5 8 -3 9 6 4 17 -10 13 -2 -34 73 -22 35
-45 61 -51 58 -6 -2 -12 2 -12 10 0 7 5 10 11 6 19 -11 -93 153 -133 195 -12
12 -21 25 -21 28 0 14 -53 74 -61 69 -5 -3 -6 1 -3 9 3 8 -6 21 -20 31 -15 9
-26 21 -26 27 0 19 -52 79 -63 72 -5 -3 -7 -1 -4 4 7 12 -16 36 -26 28 -4 -3
-5 -2 -2 2 3 3 -16 31 -42 62 -78 92 -96 110 -106 104 -6 -3 -8 -2 -4 3 3 5
-32 47 -78 93 -76 76 -86 83 -102 70 -17 -13 -17 -13 -4 4 10 13 11 21 3 29
-14 14 -35 0 -27 -19 4 -13 3 -14 -10 -3 -14 11 -13 14 2 26 17 13 17 15 -2
29 -35 27 -97 79 -114 96 -37 36 -166 119 -185 119 -3 0 -5 -8 -5 -17z m142
-87 c3 -8 0 -19 -7 -25 -10 -9 -13 -6 -11 11 4 34 9 38 18 14z m441 -402 c3
-8 2 -12 -4 -9 -6 3 -10 10 -10 16 0 14 7 11 14 -7z m-3 -31 c13 -16 12 -17
-3 -4 -17 13 -22 21 -14 21 2 0 10 -8 17 -17z m294 -373 c3 -5 1 -10 -4 -10
-6 0 -11 5 -11 10 0 6 2 10 4 10 3 0 8 -4 11 -10z m70 -70 c3 -6 -1 -7 -9 -4
-18 7 -21 14 -7 14 6 0 13 -4 16 -10z m-24 -43 c-10 -9 -11 -8 -5 6 3 10 9 15
12 12 3 -3 0 -11 -7 -18z m44 13 c3 -6 -1 -7 -9 -4 -18 7 -21 14 -7 14 6 0 13
-4 16 -10z m134 -203 c0 -9 -2 -8 -6 1 -2 6 -10 9 -15 6 -7 -4 -8 -2 -4 5 9
13 26 5 25 -12z m172 -370 c-10 -9 -11 -8 -5 6 3 10 9 15 12 12 3 -3 0 -11 -7
-18z m69 -991 c0 -2 -8 -10 -17 -17 -16 -13 -17 -12 -4 4 13 16 21 21 21 13z
m-87 -158 c-12 -13 -13 -18 -3 -18 7 0 11 -3 7 -6 -12 -12 -28 7 -18 20 6 7 9
15 6 18 -3 2 2 5 10 5 13 0 13 -3 -2 -19z m-69 -77 c-9 -9 -34 -9 -34 -1 0 5
9 8 20 7 10 -1 17 -3 14 -6z m-1719 -31 c3 -6 -1 -7 -9 -4 -18 7 -21 14 -7 14
6 0 13 -4 16 -10z m1645 -90 c0 -5 -2 -10 -4 -10 -3 0 -8 5 -11 10 -3 6 -1 10
4 10 6 0 11 -4 11 -10z m-104 -45 c-1 -8 -5 -17 -8 -21 -5 -4 -4 16 1 34 3 9
9 -1 7 -13z m-2129 -21 c-3 -3 -12 -4 -19 -1 -8 3 -5 6 6 6 11 1 17 -2 13 -5z
m2069 -56 c4 -7 4 -10 -1 -6 -4 4 -15 2 -24 -5 -14 -11 -14 -10 -2 6 16 20 18
21 27 5z m-149 -90 c-3 -8 -6 -5 -6 6 -1 11 2 17 5 13 3 -3 4 -12 1 -19z
m-2499 -23 c-3 -3 -9 2 -12 12 -6 14 -5 15 5 6 7 -7 10 -15 7 -18z m2389 -42
c-14 -14 -19 -15 -29 -4 -11 10 -10 11 3 6 10 -4 20 -2 24 4 3 6 9 11 13 11 3
0 -1 -8 -11 -17z m-232 -83 c-3 -5 -11 -10 -16 -10 -6 0 -7 5 -4 10 3 6 11 10
16 10 6 0 7 -4 4 -10z"/>
</g>
</svg>
